<svg width="1534" height="1464" viewBox="0 0 1534 1464" xmlns="http://www.w3.org/2000/svg"><title>AcademyKit</title><defs><radialGradient fx="50%" fy="50%" r="103%" gradientTransform="matrix(0 1 -.64237 0 .82 0)" id="a"><stop stop-color="#3C0000" offset="0%"/><stop stop-color="#8C0000" offset="100%"/></radialGradient><radialGradient fx="50%" fy="50%" r="124.6%" gradientTransform="matrix(0 1 -.31336 0 .657 0)" id="b"><stop stop-color="#B00" offset="0%"/><stop stop-color="#F00" offset="100%"/></radialGradient><radialGradient cx="50.9%" cy="39.8%" fx="50.9%" fy="39.8%" r="60.2%" gradientTransform="matrix(0 1 -.78917 0 .823 -.11)" id="c"><stop stop-color="#796E6E" offset="0%"/><stop stop-color="#ECECEC" offset="100%"/></radialGradient><linearGradient x1="50%" y1="0%" y2="100%" id="d"><stop stop-color="#F6F6F6" offset="0%"/><stop stop-color="#D9D9D9" offset="100%"/></linearGradient></defs><g fill="none" fill-rule="evenodd"><path d="M0 652v326.4c0 39 23.3 77.7 70 107.2l527.6 334c93.4 59.2 244.8 59.2 338.2 0l527.6-334c46.7-29.5 70-68.3 70-107V485.4c0-38.7-23.3-77.5-70-107l-527.6-334C842.4-15 691-15 597.6 44.4L70 378.4c-46.7 29.6-70 68-70 107V652z" fill="#878787"/><path d="M1463.4 705.4l-527.6-334c-93.4-59-244.8-59-338.2 0L70 705.4C23.3 735 0 773.7 0 812.4v166c0 39 23.3 77.7 70 107.2l527.6 334c93.4 59.2 244.8 59.2 338.2 0l527.6-334c46.7-29.5 70-68.3 70-107v-166c0-39-23.3-77.6-70-107.2z" fill="url(#a)"/><path d="M1463.4 539.3l-527.6-334c-93.4-59-244.8-59-338.2 0L70 539.3C23.3 569 0 607.7 0 646.3v166.2c0 38.7 23.3 77.5 70 107l527.6 334c93.4 59.2 244.8 59.2 338.2 0l527.6-334c46.7-29.5 70-68.3 70-107v-166c0-39-23.3-77.6-70-107.2z" fill="url(#b)"/><path d="M1463.4 378.4l-527.6-334C842.4-15 691-15 597.6 44.4L70 378.4c-46.7 29.6-70 68-70 107v166c0 39 23.3 77.4 70 107l527.6 334c93.4 59 244.8 59 338.2 0l527.6-334c46.7-29.6 70-68.3 70-107v-166c0-39-23.3-77.7-70-107z" fill="url(#c)" style="mix-blend-mode:hard-light"/><path d="M70 378.4l527.6-334C691-15 842.4-15 935.8 44.4l527.6 334c93.4 59 93.4 155 0 214l-527.6 334c-93.4 59.2-244.8 59.2-338.2 0L70 592.4c-93.3-59-93.3-155 0-214z" fill="url(#d)" style="mix-blend-mode:luminosity"/><path d="M944.8 616.8c3.5.8 9.6 0 12.6-1.8l21-13.3c3-2 4-5.8 3-8l-132-192.2c-5.8-10.6-1-12.8 11.5-5L994 481c13 8.4 16 19.4 7.7 24.6-8.5 5.4-5 16 8.2 24.3l55 34.3 145.5-92.3-39.3-25-15-10c-13-8.3-30.5-10-39-5-7 4.7-19 4-30.4 0L865 291.3c-12.5-8-16.6-18-7.6-23.8 8.4-5.4 4.8-16.7-7.7-24.7l-61-39L656 288l138.3 213-335.8-87.3-133.8 84.7 61 38.6c12.5 8 30 10.7 38.3 5.3 9-5.7 25.4-3.4 38 4.6l214 135c13.2 8.2 17 19 8 24.5-8.6 5.2-5 16 8 24.2l54.5 35.2L893 673.7 838 639c-13-8.4-29.8-10.6-38.2-5.3-8.4 5.3-25.8 3.4-39-5l-133.3-84.3c-12.5-8-9-11 7.8-7.2l309.5 79.6z" fill="#EB0023"/></g></svg>
