<?xml version="1.0" encoding="UTF-8"?>
<svg width="1534px" height="1464px" viewBox="0 0 1534 1464" version="1.1" xmlns="http://www.w3.org/2000/svg" xmlns:xlink="http://www.w3.org/1999/xlink">
    <!-- Generator: Sketch 44.1 (41455) - http://www.bohemiancoding.com/sketch -->
    <title>AcademyKit</title>
    <desc>Created with Sketch.</desc>
    <defs>
        <radialGradient cx="50%" cy="50%" fx="50%" fy="50%" r="103.007617%" gradientTransform="translate(0.500000,0.500000),scale(0.741443,1.000000),rotate(90.000000),scale(1.000000,0.866383),translate(-0.500000,-0.500000)" id="radialGradient-1">
            <stop stop-color="#3C0000" offset="0%"></stop>
            <stop stop-color="#8C0000" offset="100%"></stop>
        </radialGradient>
        <radialGradient cx="50%" cy="50%" fx="50%" fy="50%" r="124.56495%" gradientTransform="translate(0.500000,0.500000),scale(0.741443,1.000000),rotate(90.000000),scale(1.000000,0.422634),translate(-0.500000,-0.500000)" id="radialGradient-2">
            <stop stop-color="#BB0000" offset="0%"></stop>
            <stop stop-color="#FF0000" offset="100%"></stop>
        </radialGradient>
        <radialGradient cx="50.8811235%" cy="39.801245%" fx="50.8811235%" fy="39.801245%" r="60.198755%" gradientTransform="translate(0.508811,0.398012),scale(0.741443,1.000000),rotate(90.000000),scale(1.000000,1.064376),translate(-0.508811,-0.398012)" id="radialGradient-3">
            <stop stop-color="#796E6E" offset="0%"></stop>
            <stop stop-color="#ECECEC" offset="100%"></stop>
        </radialGradient>
        <linearGradient x1="50%" y1="0%" x2="100%" y2="100%" id="linearGradient-4">
            <stop stop-color="#F6F6F6" offset="0%"></stop>
            <stop stop-color="#D9D9D9" offset="100%"></stop>
        </linearGradient>
    </defs>
    <g id="AcademyKit" stroke="none" stroke-width="1" fill="none" fill-rule="evenodd">
        <g id="Variant-1" transform="translate(-260.000000, -292.000000)">
            <g id="Foreground" transform="translate(260.000000, 292.000000)">
                <g id="AcademyKit">
                    <path d="M0.0010719007,651.972628 C0.0065563897,687.168432 0.00313593363,785.012138 8.65557367e-06,812.419321 C-4.65875987e-10,812.439755 -2.16412504e-06,812.460188 2.16458893e-06,812.480622 C1.98846593e-06,812.496714 5.83804117e-06,812.512804 1.37135477e-05,812.528895 C0.00696252391,841.545279 0.00331495814,949.606304 2.79092043e-06,978.543937 C-0.00443280261,1017.29668 23.3429972,1056.0503 70.0422897,1085.61765 L597.62508,1419.65319 C691.014801,1478.78227 842.429456,1478.78227 935.819177,1419.65319 L1463.40197,1085.61765 C1510.09813,1056.05228 1533.44556,1017.30188 1533.44426,978.551738 C1533.44329,949.59636 1533.44955,841.426415 1533.44426,812.464084 C1533.44426,812.460546 1533.44426,812.457008 1533.44426,812.453471 C1533.44329,783.46093 1533.44954,675.344798 1533.44426,646.390785 C1533.44425,646.350455 1533.44422,646.310124 1533.44416,646.269793 C1533.44392,611.321008 1533.44927,512.855433 1533.44426,485.427435 C1533.43719,446.68423 1510.08976,407.942419 1463.40197,378.382353 L935.819177,44.3468114 C842.429456,-14.7822705 691.014801,-14.7822705 597.62508,44.3468114 L70.0422897,378.382353 C23.3381082,407.952795 -0.00932007099,446.689941 2.79091897e-06,485.446742 C0.00658483952,512.809492 0.00368473444,610.941107 0.000548677388,646.061531 C0.000156799981,646.177721 -2.51573599e-05,646.293906 2.79091897e-06,646.410092 C0.000127136157,646.927018 0.000248097295,647.4692 0.000365736673,648.035737 C0.000244662055,649.292912 0.00012350374,650.452648 2.79092043e-06,651.507288 C-1.49631832e-05,651.662402 0.000341406742,651.817515 0.0010719007,651.972628 Z" id="Frame" fill="#878787"></path>
                    <path d="M1463.40197,705.419002 L935.819177,371.383461 C842.429456,312.254379 691.014801,312.254379 597.62508,371.383461 L70.0422897,705.419002 C23.3381082,734.989444 -0.00932007099,773.72659 2.79091897e-06,812.483391 C0.00696634293,841.432119 0.00331669203,949.591156 2.79092043e-06,978.543937 C-0.00443280261,1017.29668 23.3429972,1056.0503 70.0422897,1085.61765 L597.62508,1419.65319 C691.014801,1478.78227 842.429456,1478.78227 935.819177,1419.65319 L1463.40197,1085.61765 C1510.09813,1056.05228 1533.44556,1017.30188 1533.44426,978.551738 C1533.44329,949.59636 1533.44955,841.426415 1533.44426,812.464084 C1533.43719,773.72088 1510.08976,734.979068 1463.40197,705.419002 Z" id="3rd-Layer" fill="url(#radialGradient-1)"></path>
                    <path d="M1463.40197,539.345703 L935.819177,205.310162 C842.429456,146.18108 691.014801,146.18108 597.62508,205.310162 L70.0422897,539.345703 C23.3381082,568.916146 -0.00932007099,607.653292 2.79091897e-06,646.410092 C0.00696634293,675.358821 0.00331669203,783.517857 2.79092043e-06,812.470639 C-0.00443280261,851.223386 23.3429972,889.977002 70.0422897,919.544349 L597.62508,1253.57989 C691.014801,1312.70897 842.429456,1312.70897 935.819177,1253.57989 L1463.40197,919.544349 C1510.09813,889.978985 1533.44556,851.228585 1533.44426,812.47844 C1533.44329,783.523061 1533.44955,675.353116 1533.44426,646.390785 C1533.43719,607.647581 1510.08976,568.90577 1463.40197,539.345703 Z" id="2nd-Layer" fill="url(#radialGradient-2)"></path>
                    <path d="M1463.40197,378.382353 L935.819177,44.3468114 C842.429456,-14.7822705 691.014801,-14.7822705 597.62508,44.3468114 L70.0422897,378.382353 C23.3381082,407.952795 -0.00932007099,446.689941 2.79091897e-06,485.446742 C0.00696634293,514.39547 0.00331669203,622.554506 2.79092043e-06,651.507288 C-0.00443280261,690.260035 23.3429972,729.013651 70.0422897,758.580998 L597.62508,1092.61654 C691.014801,1151.74562 842.429456,1151.74562 935.819177,1092.61654 L1463.40197,758.580998 C1510.09813,729.015634 1533.44556,690.265234 1533.44426,651.515089 C1533.44329,622.55971 1533.44955,514.389765 1533.44426,485.427435 C1533.43719,446.68423 1510.08976,407.942419 1463.40197,378.382353 Z" id="1st-Layer" fill="url(#radialGradient-3)" style="mix-blend-mode: hard-light;"></path>
                    <g id="Surface">
                        <path d="M70.0422908,378.382353 L597.625081,44.3468114 C691.014802,-14.7822705 842.429457,-14.7822705 935.819178,44.3468114 L1463.40197,378.382353 C1556.79169,437.511435 1556.79169,533.378618 1463.40197,592.5077 L935.819178,926.543241 C842.429457,985.672323 691.014802,985.672323 597.625081,926.543241 L70.0422908,592.5077 C-23.3474303,533.378618 -23.3474303,437.511435 70.0422908,378.382353 Z" id="Shape" fill="url(#linearGradient-4)" style="mix-blend-mode: luminosity;"></path>
                        <path d="M944.758438,616.834272 C948.306949,617.599364 954.357447,616.851582 957.35705,614.952403 L978.364982,601.651371 C981.362638,599.753425 982.535914,595.927523 981.374235,593.651223 L849.492889,401.536138 C843.577918,390.918569 848.373294,388.651943 860.922274,396.597246 L994.268163,481.024311 C1007.42679,489.35561 1010.36775,500.355164 1002.01286,505.645008 C993.566467,510.992785 997.162041,521.581558 1010.31631,529.910094 L1065.33607,564.745493 L1211.13539,472.433624 L1171.68375,447.455081 L1156.71428,437.21919 C1143.56001,428.890655 1126.19537,427.019677 1117.80981,432.328935 C1110.61524,436.884129 1098.60202,436.165372 1087.27467,432.001776 L865.436501,291.546411 C852.847265,283.575621 848.702604,273.362135 857.718449,267.653813 C866.104002,262.344556 862.542686,250.9664 849.972851,243.007892 L788.991422,204.397906 L656.377609,288.361461 L794.195104,500.966121 L458.352682,413.739629 L324.579035,498.437525 L385.560464,537.047512 C398.130299,545.00602 415.459225,547.667304 423.895883,542.32569 C432.898101,536.625996 449.604788,538.885918 462.194023,546.856709 L676.242553,682.380115 C689.401183,690.711414 692.989466,701.301118 683.987249,707.000812 C675.550591,712.342426 679.147625,722.930274 692.30189,731.25881 L746.71716,766.476942 L893.101503,673.794666 L838.081738,638.959267 C824.927473,630.630732 808.169758,628.375481 799.772037,633.692442 C791.378209,639.006938 774.034483,637.126401 760.875853,628.795102 L627.529964,544.368038 C614.980984,536.422734 618.55072,533.393045 635.293076,537.155327 L944.758438,616.834272 L944.758438,616.834272 Z" id="Path" fill="#EB0023"></path>
                    </g>
                </g>
            </g>
        </g>
    </g>
</svg>